<?xml version="1.0" encoding="UTF-8"?>
<svg width="256px" height="256px" viewBox="0 0 256 256" version="1.1" xmlns="http://www.w3.org/2000/svg" xmlns:xlink="http://www.w3.org/1999/xlink">
    <!-- Generator: Sketch 57.1 (83088) - https://sketch.com -->
    <title>Artboard</title>
    <desc>Created with Sketch.</desc>
    <g id="Artboard" stroke="none" stroke-width="1" fill="none" fill-rule="evenodd">
        <rect fill="#3B7080" x="0" y="0" width="256" height="256"></rect>
        <g id="iconfinder_176-Time_2124057" transform="translate(45.000000, 45.000000)" stroke="#FCEC52" stroke-linejoin="round" stroke-width="7">
            <path d="M83,166 C37.1603658,166 0,128.839634 0,83 C0,37.1603658 37.1603658,0 83,0 C128.839634,0 166,37.1603658 166,83" id="Path"></path>
            <polyline id="Path" points="83 22 83 83.1111111 44 122"></polyline>
            <path d="M105,105.181818 C105,92.9311383 114.849736,83 127,83 C139.150264,83 149,92.9311383 149,105.181818 C149,117.432498 139.150264,127.363636 127,127.363636 L127,144" id="Path"></path>
            <path d="M122,160 L133,160" id="Path"></path>
        </g>
    </g>
</svg>